<?xml version="1.0" encoding="utf-8"?>
<!-- Generator: Adobe Illustrator 18.0.0, SVG Export Plug-In . SVG Version: 6.00 Build 0)  -->
<!DOCTYPE svg PUBLIC "-//W3C//DTD SVG 1.1//EN" "http://www.w3.org/Graphics/SVG/1.1/DTD/svg11.dtd">
<svg version="1.1" id="Layer_1" xmlns="http://www.w3.org/2000/svg" xmlns:xlink="http://www.w3.org/1999/xlink" x="0px" y="0px"
	 viewBox="0 0 720 720" enable-background="new 0 0 720 720" xml:space="preserve">
<g>
	<path fill="white" d="M360.4,718.9C162.6,718.9,1.6,558,1.6,360.2c0-197.8,161-358.8,358.8-358.8s358.8,161,358.8,358.8
		C719.2,558,558.3,718.9,360.4,718.9z"/>
	<path fill="rgb(38,90,165)" d="M360.4,718.9C162.6,718.9,1.6,558,1.6,360.2c0-197.8,161-358.8,358.8-358.8s358.8,161,358.8,358.8
		C719.2,558,558.3,718.9,360.4,718.9z M360.4,36.3c-178.6,0-323.9,145.3-323.9,323.9S181.8,684,360.4,684s323.9-145.3,323.9-323.9
		S539,36.3,360.4,36.3z"/>
</g>
<path fill="rgb(38,90,165)" d="M254.4,285.9c0,0,5-20.3,9-29.4c5.8-13.1,13.5-24.2,22.9-33.3c9.5-9.1,20.5-16.1,33-21.1c12.6-4.9,26.3-7.4,41.1-7.4
	c15.8,0,30.2,2.3,43.1,6.8c13,4.5,24.1,10.8,33.4,18.9c9.3,8.1,16.5,17.7,21.7,28.8c5.2,11.2,7.8,23.3,7.8,36.5
	c0,8.9-1.2,17.2-3.5,25c-2.3,7.8-5.5,15.2-9.6,22.2c-4.1,7-9,13.6-14.8,19.8c-5.8,6.2-12.1,12.2-19,18c-7.7,6.4-13.9,12.1-18.6,17
	c-4.7,4.9-7.9,9.2-9.5,12.8c-3.3,7.1-4.9,22.6-4.9,46.6h-55.5c0-32.9,3.2-56,9.6-69.3c6.2-12.8,17.9-26.4,35-40.7
	c7.4-6.1,13.1-11.5,17.3-16.1c4.1-4.7,7.2-8.9,9.4-12.6c2.1-3.7,3.5-7.1,3.9-10.4c0.5-3.2,0.7-6.5,0.7-10c0-6.4-1.1-12.3-3.3-17.7
	c-2.2-5.4-5.4-10.1-9.5-14c-4.1-3.9-9-7-14.5-9.2c-5.6-2.2-11.8-3.3-18.7-3.3c-27,0-43.4,18.8-49.3,56.4L254.4,285.9L254.4,285.9z
	 M390.8,525.5h-61.4v-60.6h61.4V525.5L390.8,525.5z"/>
</svg>
