<?xml version="1.0" encoding="utf-8"?>
<!-- Generator: Adobe Illustrator 16.0.0, SVG Export Plug-In . SVG Version: 6.00 Build 0)  -->
<!DOCTYPE svg PUBLIC "-//W3C//DTD SVG 1.1 Basic//EN" "http://www.w3.org/Graphics/SVG/1.1/DTD/svg11-basic.dtd">
<svg version="1.1" baseProfile="basic" id="Layer_1"
	 xmlns="http://www.w3.org/2000/svg" xmlns:xlink="http://www.w3.org/1999/xlink" x="0px" y="0px" width="65px" height="47px"
	 viewBox="0 0 65 47" xml:space="preserve">
<g>
	<defs>
		<rect id="SVGID_1_" x="1" y="0.722" width="64" height="46.278"/>
	</defs>
	<clipPath id="SVGID_2_">
		<use xlink:href="#SVGID_1_"  overflow="visible"/>
	</clipPath>
	<path clip-path="url(#SVGID_2_)" fill="#385CA9" d="M21.472,39.683h14.059v-2.696H21.472V39.683z M62.281,42.653
		c0,0.91-0.747,1.65-1.665,1.65H18.318c-0.917,0-1.665-0.74-1.665-1.65V15.83c0-0.911,0.747-1.651,1.665-1.651h42.298
		c0.918,0,1.665,0.74,1.665,1.651V42.653z M13.937,15.83v15.305l-6.855,1.121L3.742,12.16c-0.073-0.435,0.029-0.871,0.29-1.229
		c0.259-0.359,0.643-0.595,1.082-0.667l41.734-6.822c0.438-0.07,0.88,0.03,1.241,0.288c0.361,0.257,0.6,0.638,0.672,1.072
		l1.112,6.682H18.318C15.902,11.483,13.937,13.433,13.937,15.83 M13.937,39.354l-3.883,0.635c-0.439,0.071-0.879-0.031-1.24-0.288
		c-0.361-0.256-0.599-0.639-0.672-1.073l-0.243-1.46l6.039-0.986V39.354z M60.616,11.483h-7.987l-1.185-7.119
		c-0.191-1.146-0.821-2.15-1.771-2.826c-0.953-0.677-2.11-0.946-3.267-0.755L4.671,7.603C3.516,7.792,2.504,8.417,1.822,9.36
		c-0.682,0.944-0.953,2.095-0.763,3.24l4.156,25.005h0.001l0.241,1.46c0.192,1.146,0.819,2.147,1.772,2.825
		c0.752,0.536,1.635,0.814,2.544,0.814c0.24,0,0.482-0.019,0.722-0.058l3.44-0.563v0.569c0,2.396,1.965,4.347,4.382,4.347h42.298
		C63.032,47,65,45.05,65,42.653V15.83C65,13.433,63.032,11.483,60.616,11.483 M21.472,33.871h25.233v-2.696H21.472V33.871z"/>
</g>
</svg>
