<?xml version="1.0" encoding="UTF-8" standalone="no"?>
<svg
   xmlns:dc="http://purl.org/dc/elements/1.1/"
   xmlns:cc="http://creativecommons.org/ns#"
   xmlns:rdf="http://www.w3.org/1999/02/22-rdf-syntax-ns#"
   xmlns:svg="http://www.w3.org/2000/svg"
   xmlns="http://www.w3.org/2000/svg"
   viewBox="0 0 185.6125 288.23749"
   height="auto"
   width="auto"
   xml:space="preserve"
   version="1.1"
   id="svg2"><metadata
     id="metadata8"><rdf:RDF><cc:Work
         rdf:about=""><dc:format>image/svg+xml</dc:format><dc:type
           rdf:resource="http://purl.org/dc/dcmitype/StillImage" /></cc:Work></rdf:RDF></metadata><defs
     id="defs6"><clipPath
       id="clipPath18"
       clipPathUnits="userSpaceOnUse"><path
         id="path20"
         d="M 0,2305.88 0,0 l 1484.93,0 0,2305.88 -1484.93,0 z" /></clipPath></defs><g
     transform="matrix(1.25,0,0,-1.25,0,288.2375)"
     id="g10"><g
       transform="scale(0.1,0.1)"
       id="g12"><g
         id="g14"><g
           clip-path="url(#clipPath18)"
           id="g16"><path
             id="path22"
             style="fill:#f79510;fill-opacity:1;fill-rule:nonzero;stroke:none"
             d="m 1471.69,834.641 c -41.31,83.738 -114.24,145.359 -193.61,192.509 -27.49,16.35 -58.28,27.98 -85.4,36.75 -62.11,20.1 -122.36,24.87 -192.44,36.75 -56.9,9.69 -101.888,33.16 -150.189,65.97 -25.239,17.14 -45.832,40.69 -62.934,65.94 -3.301,4.88 -19.363,24.5 -17.754,31.15 0,0 -11.082,-44.84 11.02,-107.7 -203.899,9.06 -382.68,122.25 -464.563,259.2 -150.808,252.25 -97.597,558.07 103.301,693.06 200.879,135.03 507.274,39.88 671.239,-204.03 102.87,-153.06 129.38,-331.02 85.32,-475.76 -0.33,-1.09 -0.73,-2.16 -1.08,-3.25 -87.13,63.4 -166.82,31.09 -166.82,31.09 87.26,9.01 156.36,-60.61 156.36,-60.61 10.18,-9.05 19.86,-18.96 28.73,-30.04 2.14,-2.68 3.98,-5.5 6.01,-8.26 22.85,-31.05 37.18,-65.63 43.22,-100.62 173.43,219.91 202.03,524.55 48.6,761.23 -195.48,301.51 -612.079,378.52 -930.458,172.04 C 41.7695,1983.63 -57.918,1571.91 137.5,1270.48 298.301,1022.4 674.91,946.789 891.133,1015.17 c 81.457,25.76 361.177,50.13 555.787,-179.818 0,0 16.86,-19.141 26.01,-41.082 0,0 2.6,-7.7 9.71,-4.09 1.98,1.031 7.38,7.308 -10.95,44.461" /><path
             id="path24"
             style="fill:#2a3c93;fill-opacity:1;fill-rule:nonzero;stroke:none"
             d="m 1463.74,171.359 c 0,-12.199 -5.84,-14.14 -14.18,-14.14 l -59.99,0 c -9.03,0.601 -14.23,2.57 -14.23,14.14 l 0,427.602 c 0.7,9.027 1.96,13.539 13.54,13.539 l 61.32,0 c 9.63,0 13.54,-1.91 13.54,-13.539 l 0,-427.602 z M 996.777,444.801 910.41,170.121 c -3.269,-9.691 -4.543,-11.601 -10.976,-12.301 -1.934,-0.601 -19.368,-0.601 -29.043,-0.601 -11.575,0 -14.832,1.941 -18.036,12.211 L 731.738,592.488 c -1.933,7.16 -1.933,7.774 -1.933,10.34 0,7.762 5.84,9.672 12.238,9.672 l 60.652,0 c 10.91,0 13.543,-0.641 16.746,-14.172 l 74.164,-294.058 90.333,295.378 c 3.203,9.012 4.5,12.852 11.597,12.852 l 24.515,0 c 4.5,-1.27 5.14,-2.57 9,-14.809 l 91.6,-293.421 74.8,295.378 c 2.57,10.282 5.8,12.852 14.84,12.852 l 43.82,0 c 7.1,0 12.9,0 12.9,-8.34 0,-2.629 -0.6,-5.199 -1.93,-11.672 L 1146.44,170.121 c -3.21,-10.332 -5.18,-12.902 -14.18,-12.902 l -31.62,0 c -6.43,0.601 -8.39,2.57 -11.63,12.211 L 996.777,444.801 Z M 622.156,171.359 c 0,-12.199 -5.84,-14.14 -14.176,-14.14 l -59.992,0 c -9.035,0.601 -14.226,2.57 -14.226,14.14 l 0,427.602 c 0.691,9.027 1.961,13.539 13.562,13.539 l 61.289,0 c 9.641,0 13.543,-1.91 13.543,-13.539 l 0,-427.602 z m -328.25,348.289 c -29.043,45.133 -68.32,49.032 -83.191,49.032 -30.949,0 -64.492,-16.809 -86.438,-50.961 -22.566,-36.11 -28.3395,-87.688 -28.3395,-130.91 0,-39.989 5.1365,-93.5 28.3395,-132.887 32.285,-53.512 77.434,-53.512 85.801,-53.512 31.61,0 66.399,16.801 89.668,57.422 21.902,39.34 25.742,93.488 25.109,131.539 0,30.988 -3.871,88.34 -30.949,130.277 z M 412.559,44.3711 C 428.691,40.4688 438.398,37.9102 438.398,23.7109 438.398,16.6016 433.867,5 415.82,5 402.922,5 233.926,24.3711 181.062,148.809 53.3906,169.43 5,277.191 5,381.641 5,541.602 99.1406,622.828 211.348,622.828 333.262,622.828 415.82,526.09 415.82,386.809 415.82,310.051 388.047,198.469 272.637,155.25 293.906,82.4297 373.879,54.6406 412.559,44.3711" /><path
             id="path26"
             style="fill:none;stroke:#2a3c93;stroke-width:10;stroke-linecap:butt;stroke-linejoin:miter;stroke-miterlimit:10;stroke-dasharray:none;stroke-opacity:1"
             d="m 1463.74,171.359 c 0,-12.199 -5.84,-14.14 -14.18,-14.14 l -59.99,0 c -9.03,0.601 -14.23,2.57 -14.23,14.14 l 0,427.602 c 0.7,9.027 1.96,13.539 13.54,13.539 l 61.32,0 c 9.63,0 13.54,-1.91 13.54,-13.539 l 0,-427.602 z M 996.777,444.801 910.41,170.121 c -3.269,-9.691 -4.543,-11.601 -10.976,-12.301 -1.934,-0.601 -19.368,-0.601 -29.043,-0.601 -11.575,0 -14.832,1.941 -18.036,12.211 L 731.738,592.488 c -1.933,7.16 -1.933,7.774 -1.933,10.34 0,7.762 5.84,9.672 12.238,9.672 l 60.652,0 c 10.91,0 13.543,-0.641 16.746,-14.172 l 74.164,-294.058 90.333,295.378 c 3.203,9.012 4.5,12.852 11.597,12.852 l 24.515,0 c 4.5,-1.27 5.14,-2.57 9,-14.809 l 91.6,-293.421 74.8,295.378 c 2.57,10.282 5.8,12.852 14.84,12.852 l 43.82,0 c 7.1,0 12.9,0 12.9,-8.34 0,-2.629 -0.6,-5.199 -1.93,-11.672 L 1146.44,170.121 c -3.21,-10.332 -5.18,-12.902 -14.18,-12.902 l -31.62,0 c -6.43,0.601 -8.39,2.57 -11.63,12.211 L 996.777,444.801 Z M 622.156,171.359 c 0,-12.199 -5.84,-14.14 -14.176,-14.14 l -59.992,0 c -9.035,0.601 -14.226,2.57 -14.226,14.14 l 0,427.602 c 0.691,9.027 1.961,13.539 13.562,13.539 l 61.289,0 c 9.641,0 13.543,-1.91 13.543,-13.539 l 0,-427.602 z m -328.25,348.289 c -29.043,45.133 -68.32,49.032 -83.191,49.032 -30.949,0 -64.492,-16.809 -86.438,-50.961 -22.566,-36.11 -28.3395,-87.688 -28.3395,-130.91 0,-39.989 5.1365,-93.5 28.3395,-132.887 32.285,-53.512 77.434,-53.512 85.801,-53.512 31.61,0 66.399,16.801 89.668,57.422 21.902,39.34 25.742,93.488 25.109,131.539 0,30.988 -3.871,88.34 -30.949,130.277 z M 412.559,44.3711 C 428.691,40.4688 438.398,37.9102 438.398,23.7109 438.398,16.6016 433.867,5 415.82,5 402.922,5 233.926,24.3711 181.062,148.809 53.3906,169.43 5,277.191 5,381.641 5,541.602 99.1406,622.828 211.348,622.828 333.262,622.828 415.82,526.09 415.82,386.809 415.82,310.051 388.047,198.469 272.637,155.25 293.906,82.4297 373.879,54.6406 412.559,44.3711 Z" /><path
             id="path28"
             style="fill:#f79510;fill-opacity:1;fill-rule:nonzero;stroke:none"
             d="m 1030.96,1186.48 c 7.09,-14.17 21.48,-27.46 41.59,-27.46 20.67,0 47.41,26.65 22.67,63.26 -11.36,16.82 -35.88,30.27 -55.8,16.64 -23.56,-16.13 -12.23,-44.92 -8.46,-52.44" /><path
             id="path30"
             style="fill:#f79510;fill-opacity:1;fill-rule:nonzero;stroke:none"
             d="m 1198.6,1217.46 c -7.83,4.34 -18.3,22.04 -26.74,49.28 -3.54,11.15 -2.44,27.88 11.9,22.53 14.5,-5.57 23.08,-28.88 25.54,-40.15 5.24,-23.99 -2.5,-36.21 -10.7,-31.66" /></g></g></g></g></svg>